<svg width="200" height="44" viewBox="0 0 200 44" fill="none" xmlns="http://www.w3.org/2000/svg">
<path d="M17.49 27.2L18.9 29.96C18.24 30.66 17.29 31.23 16.05 31.67C14.83 32.11 13.54 32.33 12.18 32.33C8.98 32.33 6.37 31.34 4.35 29.36C2.35 27.38 1.35 24.76 1.35 21.5C1.35 18.38 2.3 15.79 4.2 13.73C6.08 11.69 8.71 10.67 12.09 10.67C14.77 10.67 16.9 11.38 18.48 12.8L16.83 15.53C15.41 14.59 13.83 14.12 12.09 14.12C10.09 14.12 8.45 14.79 7.17 16.13C5.89 17.47 5.25 19.26 5.25 21.5C5.25 23.7 5.92 25.48 7.26 26.84C8.62 28.2 10.37 28.88 12.51 28.88C14.35 28.88 16.01 28.32 17.49 27.2ZM33.8023 11H37.7923L30.3223 23.24V32H26.6323V23.24L19.2223 11H23.4223L28.6423 19.79L33.8023 11ZM40.8495 31.97V11.06C43.0095 10.96 45.0295 10.91 46.9095 10.91C49.2295 10.91 50.9595 11.37 52.0995 12.29C53.2395 13.21 53.8095 14.48 53.8095 16.1C53.8095 18.36 52.8095 19.95 50.8095 20.87V20.93C51.9495 21.23 52.8495 21.8 53.5095 22.64C54.1695 23.46 54.4995 24.52 54.4995 25.82C54.4995 27.86 53.7995 29.42 52.3995 30.5C50.9995 31.58 49.0995 32.12 46.6995 32.12C44.2995 32.12 42.3495 32.07 40.8495 31.97ZM47.1495 22.97H44.5395V28.52C45.4795 28.62 46.2895 28.67 46.9695 28.67C49.5295 28.67 50.8095 27.66 50.8095 25.64C50.8095 24.76 50.4895 24.1 49.8495 23.66C49.2095 23.2 48.3095 22.97 47.1495 22.97ZM46.8495 14.36C45.9695 14.36 45.1995 14.39 44.5395 14.45V19.76H47.0295C47.9695 19.76 48.7195 19.52 49.2795 19.04C49.8595 18.56 50.1495 17.87 50.1495 16.97C50.1495 16.13 49.8595 15.49 49.2795 15.05C48.6995 14.59 47.8895 14.36 46.8495 14.36ZM71.8151 32H59.3651V11H71.5151V14.45H63.0551V19.67H70.6151V23.12H63.0551V28.55H71.8151V32ZM80.3109 24.14V32H76.6209V11C77.6609 11 78.7909 10.99 80.0109 10.97C81.2309 10.95 82.2309 10.94 83.0109 10.94C88.0909 10.94 90.6309 13.1 90.6309 17.42C90.6309 19.02 90.2209 20.34 89.4009 21.38C88.5809 22.38 87.6409 23.06 86.5809 23.42L93.1509 32H88.6809L82.8909 24.14H80.3109ZM82.8309 14.39C82.7309 14.39 82.5709 14.4 82.3509 14.42C82.1309 14.42 81.8209 14.43 81.4209 14.45C81.0209 14.45 80.6509 14.45 80.3109 14.45V20.69H82.7109C83.8909 20.69 84.8509 20.4 85.5909 19.82C86.3509 19.24 86.7309 18.45 86.7309 17.45C86.7309 15.41 85.4309 14.39 82.8309 14.39Z" fill="white"/>
<path d="M122.34 26.42C122.34 25.78 122.1 25.22 121.62 24.74C121.16 24.24 120.58 23.84 119.88 23.54C119.18 23.22 118.41 22.86 117.57 22.46C116.75 22.04 115.99 21.61 115.29 21.17C114.59 20.71 114 20.08 113.52 19.28C113.06 18.46 112.83 17.52 112.83 16.46C112.83 14.84 113.42 13.47 114.6 12.35C115.82 11.23 117.41 10.67 119.37 10.67C122.03 10.67 124.03 11.42 125.37 12.92L123.39 15.68C122.33 14.64 121.09 14.12 119.67 14.12C118.77 14.12 118.05 14.33 117.51 14.75C116.99 15.17 116.73 15.73 116.73 16.43C116.73 16.79 116.8 17.13 116.94 17.45C117.08 17.75 117.23 18 117.39 18.2C117.57 18.4 117.85 18.62 118.23 18.86C118.63 19.1 118.94 19.28 119.16 19.4C119.4 19.5 119.79 19.67 120.33 19.91C120.87 20.15 121.25 20.32 121.47 20.42C122.35 20.82 123.12 21.24 123.78 21.68C124.52 22.12 125.11 22.75 125.55 23.57C126.01 24.39 126.24 25.33 126.24 26.39C126.24 28.15 125.57 29.58 124.23 30.68C122.89 31.78 121.22 32.33 119.22 32.33C117.82 32.33 116.43 32.04 115.05 31.46C113.73 30.86 112.83 30.05 112.35 29.03L114.45 26.51C115.01 27.25 115.73 27.83 116.61 28.25C117.51 28.67 118.4 28.88 119.28 28.88C120.2 28.88 120.94 28.66 121.5 28.22C122.06 27.78 122.34 27.18 122.34 26.42ZM134.182 32H130.492V11H134.182V20.96L142.462 11H146.902L138.262 20.78L147.442 32H142.762L134.182 21.17V32ZM154.788 32H151.098V11H154.788V32ZM174.189 32H161.049V11H164.739V28.55H174.189V32ZM190.595 32H177.455V11H181.145V28.55H190.595V32Z" fill="#FE5000"/>
<rect x="103" y="1" width="96" height="42" stroke="#FE5000" stroke-width="2"/>
</svg>
